<svg width="512" height="512" viewBox="0 0 512 512" xmlns="http://www.w3.org/2000/svg" role="img" aria-label="Grind">
  <rect width="512" height="512" rx="104" fill="#276f54"/>
  <path fill="#ffffff" transform="translate(123.5048 406.0000) scale(0.193424 -0.193424) translate(-85.0000 39.0000)" d="M1060 36Q938 -39 760 -39Q467 -39 280 164Q85 368 85 722Q85 1080 282 1296Q479 1512 803 1512Q1084 1512 1254.5 1369.5Q1425 1227 1450 1014H1147Q1112 1165 976 1225Q900 1258 807 1258Q629 1258 514.5 1123.5Q400 989 400 719Q400 447 524.0 334.0Q648 221 806 221Q961 221 1060.0 310.5Q1159 400 1182 545H841V791H1455V0H1251L1220 184Q1131 79 1060 36Z"/>
</svg>
